<?xml version="1.0" encoding="UTF-8"?>
<!DOCTYPE svg PUBLIC "-//W3C//DTD SVG 1.1//EN" "http://www.w3.org/Graphics/SVG/1.1/DTD/svg11.dtd">
<svg version="1.1" xmlns="http://www.w3.org/2000/svg" xmlns:xlink="http://www.w3.org/1999/xlink" x="0" y="0" width="1190.6" height="400" viewBox="0, 0, 1190.6, 400">
  <g id="Livello_2">
    <g>
      <path d="M214.5,360.5 C125.858,360.5 54,288.642 54,200 C54,111.358 125.858,39.5 214.5,39.5 C303.142,39.5 375,111.358 375,200 C375,288.642 303.142,360.5 214.5,360.5 z" fill="#F92841"/>
      <g>
        <path d="M110.399,228.571 L110.399,227.146 L113.35,226.027 C115.182,225.416 116.403,224.5 116.912,223.381 C117.421,222.262 117.726,220.837 117.726,219.107 L117.726,146.654 C117.726,144.822 117.421,143.296 116.912,142.176 C116.403,141.057 115.182,140.141 113.35,139.53 L110.399,138.411 L110.399,136.986 L144.896,136.986 L144.896,138.411 L141.843,139.632 C140.317,140.141 139.197,141.057 138.689,142.176 C138.18,143.296 137.875,144.822 137.875,146.755 L137.875,219.311 C137.875,221.142 138.18,222.567 138.79,223.584 C139.401,224.602 140.622,225.416 142.352,226.128 L144.998,227.248 L144.998,228.672 L110.399,228.571 L110.399,228.571 z M161.483,228.571 L161.483,227.146 L163.315,226.637 C165.146,226.128 166.164,225.111 166.266,223.89 C166.367,222.669 165.757,221.142 164.638,219.412 L137.976,181.659 L172.982,145.941 C174.305,144.618 175.017,143.397 175.119,142.176 C175.221,140.955 174.305,140.039 172.473,139.429 L170.133,138.615 L170.133,137.19 L190.383,137.19 L190.383,138.615 L186.821,139.734 C184.786,140.344 183.158,141.159 181.937,142.074 C180.716,142.99 179.393,144.211 177.765,145.84 L152.935,171.178 L185.498,218.7 C186.923,220.735 188.144,222.363 189.467,223.686 C190.79,225.009 192.52,226.027 194.759,226.739 L196.692,227.248 L196.692,228.672 L161.483,228.571 L161.483,228.571 z" fill="#FFFFFF"/>
        <path d="M202.492,228.164 L202.492,226.739 L204.426,226.23 C206.156,225.721 207.377,225.009 208.089,223.89 C208.802,222.77 209.209,221.346 209.31,219.412 L209.31,176.164 C209.31,174.129 209.005,172.603 208.293,171.687 C207.682,170.669 206.359,170.059 204.528,169.651 L202.492,169.143 L202.492,167.718 L226.203,159.679 L227.627,161.104 L228.747,170.567 C231.799,167.514 235.259,164.97 239.228,162.834 C243.197,160.697 247.267,159.679 251.439,159.679 C255.917,159.679 259.478,160.595 262.124,162.325 C264.77,164.055 266.805,166.904 268.23,170.669 C271.791,167.209 275.76,164.563 279.932,162.528 C284.104,160.493 288.175,159.577 292.143,159.577 C298.656,159.577 303.54,161.104 306.593,164.258 C309.646,167.413 311.274,172.297 311.274,179.115 L311.274,219.718 C311.274,223.279 312.902,225.62 316.26,226.535 L317.787,226.943 L317.787,228.367 L285.732,228.367 L285.732,226.943 L287.157,226.535 C288.887,226.027 290.108,225.111 290.82,223.991 C291.533,222.872 291.838,221.447 291.838,219.514 L291.838,177.182 C291.838,173.315 291.126,170.669 289.803,169.244 C288.378,167.82 286.241,167.107 283.188,167.107 C280.746,167.107 278.507,167.616 276.167,168.736 C273.928,169.753 271.486,171.381 269.044,173.518 C269.552,175.045 269.858,176.571 269.959,178.403 C270.061,180.133 270.163,181.964 270.163,184 L270.163,219.921 C270.265,223.483 271.893,225.823 275.149,226.739 L276.37,227.146 L276.37,228.571 L244.214,228.571 L244.214,227.146 L246.148,226.637 C247.877,226.128 249.099,225.314 249.811,224.195 C250.523,223.076 250.829,221.651 250.829,219.819 L250.829,177.589 C250.829,173.925 250.116,171.28 248.793,169.651 C247.47,168.125 245.13,167.311 241.975,167.311 C239.838,167.311 237.701,167.82 235.564,168.939 C233.428,169.957 231.189,171.585 228.95,173.62 L228.95,220.023 C228.95,223.584 230.578,225.925 233.835,226.841 L235.056,227.248 L235.056,228.672 L202.492,228.164 L202.492,228.164 z" fill="#FFFFFF"/>
        <path d="M307.152,248.851 C278.424,243.493 249.697,244.045 221.046,249.876 C183.462,257.598 145.878,257.44 108.216,250.27 C105.598,249.797 103.133,248.457 100.438,248.221 C112.298,243.651 123.543,248.457 134.941,249.718 C160.126,252.476 185.079,251.924 209.956,246.724 C247.001,239.08 284.124,239.08 321.246,246.172 C323.71,246.645 326.098,247.748 328.562,248.379 C321.477,251.846 314.314,250.191 307.152,248.851 z" fill="#FFFFFF"/>
        <path d="M307.152,258.778 C278.424,253.419 249.697,253.971 221.046,259.802 C183.462,267.524 145.878,267.367 108.216,260.196 C105.598,259.723 103.133,258.384 100.438,258.147 C112.298,253.577 123.543,258.384 134.941,259.644 C160.126,262.402 185.079,261.851 209.956,256.65 C247.001,249.007 284.124,249.007 321.246,256.099 C323.71,256.571 326.098,257.674 328.562,258.305 C321.477,261.772 314.314,260.117 307.152,258.778 z" fill="#FFFFFF"/>
      </g>
    </g>
  </g>
  <g id="Livello_1">
    <g>
      <g>
        <path d="M425.3,226.081 L425.3,224.681 L428.2,223.581 C430,222.981 431.2,222.081 431.7,220.981 C432.2,219.881 432.5,218.481 432.5,216.781 L432.5,145.581 C432.5,143.781 432.2,142.281 431.7,141.181 C431.2,140.081 430,139.181 428.2,138.581 L425.3,137.481 L425.3,136.081 L459.2,136.081 L459.2,137.481 L456.2,138.681 C454.7,139.181 453.6,140.081 453.1,141.181 C452.6,142.281 452.3,143.781 452.3,145.681 L452.3,216.981 C452.3,218.781 452.6,220.181 453.2,221.181 C453.8,222.181 455,222.981 456.7,223.681 L459.3,224.781 L459.3,226.181 L425.3,226.081 L425.3,226.081 z M475.5,226.081 L475.5,224.681 L477.3,224.181 C479.1,223.681 480.1,222.681 480.2,221.481 C480.3,220.281 479.7,218.781 478.6,217.081 L452.4,179.981 L486.8,144.881 C488.1,143.581 488.8,142.381 488.9,141.181 C489,139.981 488.1,139.081 486.3,138.481 L484,137.681 L484,136.281 L503.9,136.281 L503.9,137.681 L500.4,138.781 C498.4,139.381 496.8,140.181 495.6,141.081 C494.4,141.981 493.1,143.181 491.5,144.781 L467.1,169.681 L499.1,216.381 C500.5,218.381 501.7,219.981 503,221.281 C504.3,222.581 506,223.581 508.2,224.281 L510.1,224.781 L510.1,226.181 L475.5,226.081 L475.5,226.081 z" fill="#000000"/>
        <path d="M512.7,226.081 L512.7,224.681 L514.6,224.181 C516.3,223.681 517.5,222.981 518.2,221.881 C518.9,220.781 519.3,219.381 519.4,217.481 L519.4,174.981 C519.4,172.981 519.1,171.481 518.4,170.581 C517.8,169.581 516.5,168.981 514.7,168.581 L512.7,168.081 L512.7,166.681 L536,158.781 L537.4,160.181 L538.5,169.481 C541.5,166.481 544.9,163.981 548.8,161.881 C552.7,159.781 556.7,158.781 560.8,158.781 C565.2,158.781 568.7,159.681 571.3,161.381 C573.9,163.081 575.9,165.881 577.3,169.581 C580.8,166.181 584.7,163.581 588.8,161.581 C592.9,159.581 596.9,158.681 600.8,158.681 C607.2,158.681 612,160.181 615,163.281 C618,166.381 619.6,171.181 619.6,177.881 L619.6,217.781 C619.6,221.281 621.2,223.581 624.5,224.481 L626,224.881 L626,226.281 L594.5,226.281 L594.5,224.881 L595.9,224.481 C597.6,223.981 598.8,223.081 599.5,221.981 C600.2,220.881 600.5,219.481 600.5,217.581 L600.5,175.981 C600.5,172.181 599.8,169.581 598.5,168.181 C597.1,166.781 595,166.081 592,166.081 C589.6,166.081 587.4,166.581 585.1,167.681 C582.9,168.681 580.5,170.281 578.1,172.381 C578.6,173.881 578.9,175.381 579,177.181 C579.1,178.881 579.2,180.681 579.2,182.681 L579.2,217.981 C579.3,221.481 580.9,223.781 584.1,224.681 L585.3,225.081 L585.3,226.481 L553.7,226.481 L553.7,225.081 L555.6,224.581 C557.3,224.081 558.5,223.281 559.2,222.181 C559.9,221.081 560.2,219.681 560.2,217.881 L560.2,176.381 C560.2,172.781 559.5,170.181 558.2,168.581 C556.9,167.081 554.6,166.281 551.5,166.281 C549.4,166.281 547.3,166.781 545.2,167.881 C543.1,168.881 540.9,170.481 538.7,172.481 L538.7,218.081 C538.7,221.581 540.3,223.881 543.5,224.781 L544.7,225.181 L544.7,226.581 L512.7,226.081 L512.7,226.081 z" fill="#000000"/>
        <path d="M687.1,228.181 C681.7,228.181 676.9,226.981 672.7,224.581 C668.4,222.181 665.1,218.481 662.6,213.381 C660.1,208.381 658.9,201.881 658.9,193.981 C658.9,185.981 660.3,179.381 663.1,174.181 C665.9,168.981 669.6,165.081 674.3,162.481 C679,159.881 684,158.581 689.4,158.581 C692.6,158.581 695.6,158.881 698.5,159.581 C701.4,160.181 704,161.181 706.3,162.481 L706.3,144.781 C706.3,142.881 706,141.481 705.4,140.581 C704.8,139.681 703.6,139.081 701.7,138.681 L699.1,138.181 L699.1,136.781 L723.9,130.781 L725.4,131.981 L724.9,151.081 L724.9,217.681 C724.9,219.481 725.2,220.981 725.9,222.081 C726.5,223.181 727.7,223.981 729.4,224.481 L730.6,224.881 L730.6,226.281 L707.3,227.781 L706.1,222.881 C703.6,224.481 700.9,225.881 697.7,226.881 C694.3,227.681 690.9,228.181 687.1,228.181 z M695,223.081 C698.8,223.081 702.3,221.981 705.5,219.681 L705.5,165.681 C702.1,163.481 698.7,162.381 695.2,162.381 C690.8,162.381 687.1,164.881 684,169.881 C680.9,174.881 679.4,182.881 679.4,193.681 C679.4,204.481 680.9,212.081 683.8,216.481 C686.6,220.981 690.3,223.081 695,223.081 z" fill="#000000"/>
        <path d="M735.2,226.081 L735.2,224.681 L737.1,224.181 C738.9,223.681 740.2,222.781 740.8,221.681 C741.5,220.581 741.8,219.181 741.8,217.281 L741.8,174.681 C741.8,172.781 741.5,171.381 740.8,170.381 C740.1,169.381 738.9,168.781 737.1,168.381 L735.2,167.981 L735.2,166.581 L760.1,158.581 L761.5,159.981 L761.1,179.281 L761.1,217.381 C761.1,219.181 761.4,220.681 762.1,221.781 C762.8,222.881 764,223.681 765.7,224.281 L767.1,224.681 L767.1,226.081 L735.2,226.081 z M751.3,151.481 C748.2,151.481 745.6,150.481 743.5,148.581 C741.4,146.581 740.3,144.181 740.3,141.181 C740.3,138.081 741.4,135.581 743.5,133.681 C745.6,131.781 748.2,130.781 751.3,130.781 C754.4,130.781 757,131.781 759.1,133.681 C761.2,135.581 762.2,138.081 762.2,141.181 C762.2,144.181 761.2,146.681 759.1,148.581 C757,150.581 754.4,151.481 751.3,151.481 z" fill="#000000"/>
        <path d="M800,226.081 L800,224.681 L802.7,223.681 C805.8,222.681 807.3,220.081 807.3,215.881 L807.3,146.181 C807.3,144.381 807.1,142.881 806.7,141.781 C806.3,140.681 805.2,139.781 803.5,139.081 L800,137.481 L800,136.081 L826.3,136.081 L851.5,201.981 L875.2,136.081 L902,136.081 L902,137.481 L899.8,138.281 C898.1,138.881 896.9,139.781 896.3,140.881 C895.7,141.981 895.3,143.481 895.3,145.281 L895.3,216.481 C895.3,218.281 895.5,219.681 896,220.681 C896.5,221.681 897.5,222.581 899.3,223.281 L902,224.481 L902,225.881 L868.1,225.881 L868.1,224.481 L871,223.281 C872.7,222.581 873.8,221.681 874.3,220.681 C874.8,219.681 875,218.281 875,216.481 L875,185.881 L875.3,146.981 L846.8,225.981 L840,225.981 L810.3,147.981 L810.7,181.881 L810.7,216.181 C810.7,218.181 811,219.781 811.6,220.981 C812.2,222.181 813.4,223.081 815.1,223.581 L818.1,224.581 L818.1,225.981 L800,226.081 L800,226.081 z" fill="#000000"/>
        <path d="M923.5,228.181 C918.2,228.181 913.8,226.681 910.2,223.681 C906.6,220.681 904.8,216.381 904.8,210.781 C904.8,206.481 907,202.581 911.3,198.981 C915.7,195.381 922.5,192.681 931.8,190.881 C933.3,190.581 934.9,190.281 936.7,189.981 C938.5,189.681 940.4,189.281 942.4,188.981 L942.4,178.181 C942.4,171.981 941.6,167.681 940.2,165.181 C938.8,162.681 936.4,161.481 933.2,161.481 C931,161.481 929.3,162.181 928,163.581 C926.7,164.981 925.9,167.381 925.5,170.881 L925.2,172.381 C925,176.281 924.1,179.181 922.3,180.981 C920.6,182.781 918.4,183.681 915.9,183.681 C913.5,183.681 911.6,182.981 910.1,181.481 C908.6,179.981 907.8,178.081 907.8,175.581 C907.8,171.881 909.1,168.681 911.7,166.181 C914.3,163.681 917.7,161.681 922,160.481 C926.3,159.181 930.9,158.581 935.9,158.581 C944,158.581 950.2,160.581 954.6,164.481 C959,168.481 961.2,174.881 961.2,183.781 L961.2,213.881 C961.2,217.981 963.1,219.981 966.9,219.981 L969.9,219.981 L971.1,221.081 C969.4,223.281 967.5,224.981 965.4,226.081 C963.3,227.181 960.5,227.881 956.8,227.881 C952.8,227.881 949.6,226.981 947.3,225.081 C945,223.181 943.5,220.781 942.7,217.681 C940,220.581 937.2,223.081 934.3,225.081 C931.7,227.181 928,228.181 923.5,228.181 z M931.8,219.881 C933.6,219.881 935.3,219.481 936.9,218.581 C938.5,217.681 940.4,216.381 942.6,214.581 L942.6,191.681 C941.7,191.881 940.8,192.081 939.9,192.181 C939,192.381 937.9,192.581 936.8,192.681 C932.6,193.781 929.3,195.581 926.8,198.181 C924.3,200.781 923.1,204.281 923.1,208.581 C923.1,212.281 924,215.081 925.7,216.981 C927.3,218.981 929.4,219.881 931.8,219.881 z" fill="#000000"/>
        <path d="M972.5,226.081 L972.5,224.681 L974.5,224.181 C976.3,223.681 977.6,222.781 978.2,221.681 C978.9,220.581 979.2,219.181 979.2,217.481 L979.2,174.981 C979.2,172.981 978.9,171.481 978.2,170.581 C977.5,169.681 976.3,168.981 974.5,168.581 L972.5,168.081 L972.5,166.681 L995.9,158.781 L997.3,160.181 L998.5,171.881 L998.5,172.981 C999.8,170.481 1001.4,168.081 1003.5,165.981 C1005.6,163.881 1007.8,162.081 1010.3,160.781 C1012.8,159.381 1015.3,158.781 1017.7,158.781 C1021.2,158.781 1023.8,159.781 1025.6,161.681 C1027.4,163.581 1028.3,165.981 1028.3,168.881 C1028.3,171.981 1027.4,174.381 1025.6,175.981 C1023.8,177.581 1021.7,178.481 1019.3,178.481 C1015.5,178.481 1012.1,176.581 1009.2,172.781 L1008.9,172.481 C1008,171.181 1006.9,170.481 1005.8,170.381 C1004.6,170.281 1003.5,170.781 1002.5,172.081 C1001.6,172.881 1000.8,173.881 1000.3,174.981 C999.7,176.081 999.1,177.381 998.6,178.881 L998.6,216.881 C998.6,220.481 1000.2,222.781 1003.4,223.681 L1007.8,224.881 L1007.8,226.281 L972.5,226.081 L972.5,226.081 z" fill="#000000"/>
        <path d="M1063.2,158.581 C1069.1,158.581 1074.1,159.781 1078.3,162.181 C1082.5,164.581 1085.7,167.881 1087.9,171.981 C1090.1,176.081 1091.2,180.781 1091.2,186.081 C1091.2,187.081 1091.2,188.081 1091.1,189.181 C1091,190.281 1090.8,191.181 1090.6,191.981 L1050,191.981 C1050.1,201.781 1051.8,208.881 1055.2,213.181 C1058.6,217.481 1063.7,219.681 1070.4,219.681 C1074.9,219.681 1078.6,218.981 1081.4,217.481 C1084.2,215.981 1086.9,213.881 1089.3,211.081 L1090.7,212.281 C1087.9,217.281 1084.1,221.181 1079.5,223.981 C1074.8,226.781 1069.2,228.181 1062.7,228.181 C1056.3,228.181 1050.5,226.781 1045.5,224.081 C1040.5,221.281 1036.6,217.381 1033.8,212.181 C1031,206.981 1029.6,200.881 1029.6,193.681 C1029.6,186.281 1031.2,179.881 1034.5,174.681 C1037.8,169.481 1042,165.481 1047.1,162.781 C1052.2,159.981 1057.5,158.581 1063.2,158.581 z M1062.8,161.381 C1060.2,161.381 1057.9,162.181 1056.1,163.781 C1054.2,165.381 1052.8,168.181 1051.7,172.181 C1050.7,176.181 1050.1,181.881 1050,189.281 L1073.3,189.281 C1074.2,179.381 1073.8,172.281 1072.2,167.881 C1070.6,163.481 1067.4,161.381 1062.8,161.381 z" fill="#000000"/>
      </g>
      <path d="M1063.7,260.581 C1026.4,253.781 989.1,254.481 951.9,261.881 C903.1,271.681 854.3,271.481 805.4,262.381 C802,261.781 798.8,260.081 795.3,259.781 C810.7,253.981 825.3,260.081 840.1,261.681 C872.8,265.181 905.2,264.481 937.5,257.881 C985.6,248.181 1033.8,248.181 1082,257.181 C1085.2,257.781 1088.3,259.181 1091.5,259.981 C1082.3,264.381 1073,262.281 1063.7,260.581 z" fill="#000000"/>
      <path d="M1062.2,247.281 C1024.9,240.481 987.6,241.181 950.4,248.581 C901.6,258.381 852.8,258.181 803.9,249.081 C800.5,248.481 797.3,246.781 793.8,246.481 C809.2,240.681 823.8,246.781 838.6,248.381 C871.3,251.881 903.7,251.181 936,244.581 C984.1,234.881 1032.3,234.881 1080.5,243.881 C1083.7,244.481 1086.8,245.881 1090,246.681 C1080.8,251.081 1071.5,248.981 1062.2,247.281 z" fill="#000000"/>
      <g>
        <path d="M538.3,263.981 C537,263.981 535.7,263.781 534.5,263.281 C533.3,262.781 532.2,262.081 531.3,261.181 C530.4,260.281 529.6,259.181 529.1,257.781 C528.6,256.381 528.3,254.981 528.3,253.281 C528.3,251.781 528.6,250.481 529.1,249.281 C529.6,248.081 530.4,246.981 531.4,245.981 C532.4,244.981 533.5,244.281 534.8,243.781 C536.1,243.281 537.5,242.981 539,242.981 C540.9,242.981 542.5,243.381 544.1,244.181 C545.6,244.981 546.7,246.081 547.5,247.481 L543.3,250.681 C542.9,249.881 542.3,249.181 541.5,248.681 C540.7,248.181 539.8,247.981 538.9,247.981 C538.2,247.981 537.6,248.081 537,248.381 C536.4,248.681 536,248.981 535.5,249.481 C535.1,249.981 534.8,250.581 534.5,251.181 C534.2,251.781 534.2,252.581 534.2,253.381 C534.2,254.181 534.3,254.881 534.6,255.581 C534.8,256.281 535.2,256.781 535.6,257.281 C536,257.781 536.5,258.181 537.1,258.381 C537.7,258.681 538.3,258.781 539.1,258.781 C540,258.781 540.9,258.581 541.7,258.081 C542.5,257.581 543.3,256.981 544,256.181 L544,261.681 C542.2,263.281 540.4,263.981 538.3,263.981 z M543.4,256.881 L539.6,256.881 L539.6,252.781 L548.1,252.781 L548.1,263.781 L543.4,263.781 L543.4,256.881 z" fill="#000000"/>
        <path d="M557.9,243.181 L564.3,243.181 L570.9,263.881 L565.1,263.881 L564,259.881 L558.1,259.881 L557,263.881 L551.2,263.881 L557.9,243.181 z M563,255.981 L561.1,248.681 L559.2,255.981 L563,255.981 z" fill="#000000"/>
        <path d="M592.3,258.581 C592.3,259.781 592,260.781 591.3,261.581 C590.6,262.381 589.7,262.981 588.6,263.281 C587.5,263.581 586.2,263.781 584.9,263.781 L574.7,263.781 L574.7,243.081 L586.7,243.081 C587.7,243.081 588.5,243.381 589.2,243.881 C589.9,244.381 590.4,245.081 590.8,245.881 C591.2,246.681 591.4,247.581 591.4,248.381 C591.4,249.381 591.2,250.281 590.7,251.181 C590.2,252.081 589.5,252.781 588.5,253.181 C589.7,253.581 590.6,254.181 591.3,254.981 C592,255.781 592.3,257.081 592.3,258.581 z M580.4,247.981 L580.4,251.181 L584.3,251.181 C584.5,251.181 584.8,251.181 585,251.081 C585.2,250.981 585.4,250.881 585.6,250.581 C585.8,250.381 585.8,249.981 585.8,249.581 C585.8,249.181 585.7,248.881 585.6,248.681 C585.5,248.481 585.3,248.281 585.1,248.181 C584.9,248.081 584.7,247.981 584.4,247.981 L580.4,247.981 L580.4,247.981 z M586.6,257.381 C586.6,256.981 586.5,256.681 586.4,256.481 C586.3,256.281 586.1,255.981 585.9,255.881 C585.7,255.681 585.4,255.681 585.1,255.681 L580.4,255.681 L580.4,259.181 L584.9,259.181 C585.2,259.181 585.5,259.081 585.7,258.981 C585.9,258.881 586.2,258.681 586.3,258.381 C586.5,257.981 586.6,257.781 586.6,257.381 z" fill="#000000"/>
        <path d="M597,263.881 L597,243.181 L602.7,243.181 L602.7,263.881 L597,263.881 z" fill="#000000"/>
        <path d="M607.3,253.281 C607.3,251.981 607.5,250.781 608,249.581 C608.5,248.381 609.2,247.281 610.1,246.281 C611,245.281 612.1,244.481 613.4,243.881 C614.7,243.281 616.2,242.981 617.9,242.981 C619.9,242.981 621.6,243.381 623.1,244.181 C624.6,244.981 625.7,246.081 626.4,247.481 L622.1,250.581 C621.9,249.881 621.5,249.381 621,248.981 C620.5,248.581 620,248.381 619.5,248.181 C619,248.081 618.4,247.981 617.9,247.981 C617.1,247.981 616.4,248.181 615.8,248.481 C615.2,248.781 614.7,249.181 614.3,249.781 C613.9,250.281 613.6,250.881 613.5,251.581 C613.4,252.281 613.2,252.881 613.2,253.481 C613.2,254.181 613.3,254.881 613.5,255.581 C613.7,256.281 614,256.781 614.4,257.381 C614.8,257.881 615.3,258.281 615.9,258.581 C616.5,258.881 617.2,258.981 617.9,258.981 C618.4,258.981 619,258.881 619.5,258.781 C620,258.681 620.5,258.381 621,257.981 C621.5,257.581 621.8,257.081 622,256.481 L626.6,259.281 C626.2,260.281 625.5,261.181 624.6,261.881 C623.6,262.581 622.6,263.181 621.4,263.481 C620.2,263.881 619,264.081 617.8,264.081 C616.3,264.081 614.9,263.781 613.6,263.181 C612.3,262.581 611.2,261.781 610.3,260.681 C609.4,259.681 608.7,258.481 608.2,257.281 C607.6,255.881 607.3,254.581 607.3,253.281 z" fill="#000000"/>
        <path d="M629.3,253.281 C629.3,251.981 629.5,250.781 630,249.581 C630.5,248.381 631.2,247.281 632.1,246.281 C633,245.281 634.1,244.481 635.4,243.881 C636.7,243.281 638.2,242.981 639.8,242.981 C641.8,242.981 643.5,243.381 645,244.181 C646.5,244.981 647.6,246.081 648.3,247.481 L644,250.581 C643.8,249.881 643.4,249.381 642.9,248.981 C642.4,248.581 641.9,248.381 641.4,248.181 C640.9,247.981 640.3,247.981 639.8,247.981 C639,247.981 638.3,248.181 637.7,248.481 C637.1,248.781 636.6,249.181 636.2,249.781 C635.8,250.281 635.5,250.881 635.3,251.581 C635.1,252.181 635,252.881 635,253.481 C635,254.181 635.1,254.881 635.3,255.581 C635.5,256.281 635.8,256.781 636.2,257.381 C636.6,257.881 637.1,258.281 637.7,258.581 C638.3,258.881 639,258.981 639.7,258.981 C640.2,258.981 640.8,258.881 641.3,258.781 C641.8,258.681 642.3,258.381 642.8,257.981 C643.3,257.581 643.6,257.081 643.8,256.481 L648.4,259.281 C648,260.281 647.3,261.181 646.4,261.881 C645.4,262.581 644.4,263.181 643.2,263.481 C642,263.781 640.8,264.081 639.6,264.081 C638.1,264.081 636.7,263.781 635.4,263.181 C634.1,262.581 633,261.781 632.1,260.681 C631.2,259.681 630.5,258.481 630,257.281 C629.6,255.881 629.3,254.581 629.3,253.281 z" fill="#000000"/>
        <path d="M667.5,258.881 L667.5,263.881 L652.7,263.881 L652.7,243.181 L667.2,243.181 L667.2,248.181 L658.4,248.181 L658.4,251.081 L665.9,251.081 L665.9,255.681 L658.4,255.681 L658.4,258.981 L667.5,258.881 L667.5,258.881 z" fill="#000000"/>
        <path d="M696.8,263.881 L696.8,252.981 L693.3,260.681 L690.3,260.681 L686.8,252.981 L686.8,263.881 L681.1,263.881 L681.1,243.181 L687.3,243.181 L691.8,252.881 L696.3,243.181 L702.5,243.181 L702.5,263.881 L696.8,263.881 z" fill="#000000"/>
        <path d="M713,243.181 L719.3,243.181 L725.9,263.881 L720.1,263.881 L719,259.881 L713.2,259.881 L712.1,263.881 L706.3,263.881 L713,243.181 z M718,255.981 L716.1,248.681 L714.2,255.981 L718,255.981 z" fill="#000000"/>
        <path d="M729.8,263.881 L729.8,243.181 L739.3,243.181 C740.3,243.181 741.2,243.381 742.1,243.781 C743,244.181 743.7,244.781 744.3,245.381 C744.9,245.981 745.4,246.881 745.7,247.681 C746,248.581 746.2,249.381 746.2,250.281 C746.2,251.081 746.1,251.881 745.9,252.581 C745.7,253.281 745.3,253.981 744.9,254.581 C744.4,255.181 743.9,255.681 743.3,256.181 L747.7,263.781 L741.5,263.781 L737.9,257.381 L735.6,257.381 L735.6,263.781 L729.8,263.881 L729.8,263.881 z M735.5,252.581 L739.1,252.581 C739.3,252.581 739.6,252.481 739.8,252.281 C740,252.081 740.2,251.881 740.3,251.481 C740.5,251.181 740.5,250.781 740.5,250.281 C740.5,249.781 740.4,249.381 740.3,249.081 C740.1,248.781 739.9,248.481 739.7,248.381 C739.5,248.181 739.2,248.081 739,248.081 L735.6,248.081 L735.5,252.581 L735.5,252.581 z" fill="#000000"/>
        <path d="M766.4,258.881 L766.4,263.881 L751.6,263.881 L751.6,243.181 L766.1,243.181 L766.1,248.181 L757.3,248.181 L757.3,251.081 L764.8,251.081 L764.8,255.681 L757.3,255.681 L757.3,258.981 L766.4,258.881 L766.4,258.881 z" fill="#000000"/>
      </g>
    </g>
  </g>
</svg>
